# xmcd
#
# Track frame offsets:
# 150
# 19975
# 39800
#
# Disc length: 747 seconds
#
# Revision: 0
# Processed by: cddbd v1.4PL0 Copyright (c) Steve Scherf et al.
# Submitted via: Audion 3.0.2 (http://www.panic.com/audion/)
#
DISCID=1802e903
DTITLE=Missy Elliot - Work it
DYEAR=1900
DGENRE=
TTITLE0=Work it (Album Version)
TTITLE1=Work it (Amended Version)
TTITLE2=Pussycat (Album Version)
EXTD=
EXTT0=
EXTT1=
EXTT2=
PLAYORDER=
